<svg xmlns="http://www.w3.org/2000/svg" width="22.302" height="22.302" viewBox="0 0 22.302 22.302"><g transform="translate(-1.5 -1.5)"><path d="M7.825,3h9.651A4.825,4.825,0,0,1,22.3,7.825v9.651A4.825,4.825,0,0,1,17.476,22.3H7.825A4.825,4.825,0,0,1,3,17.476V7.825A4.825,4.825,0,0,1,7.825,3Z" transform="translate(0 0)" fill="none" stroke="#082032" stroke-linecap="round" stroke-linejoin="round" stroke-width="3"/><path d="M19.2,14.995a3.586,3.586,0,1,1-3.021-3.021A3.586,3.586,0,0,1,19.2,14.995Z" transform="translate(-3 -2.87)" fill="none" stroke="#082032" stroke-linecap="round" stroke-linejoin="round" stroke-width="3"/><path d="M26.25,9.75h0" transform="translate(-8.291 -2.407)" fill="none" stroke="#082032" stroke-linecap="round" stroke-linejoin="round" stroke-width="3"/></g></svg>