<svg xmlns="http://www.w3.org/2000/svg" width="24" height="20" viewBox="0 0 24 20"><path d="M9.305,18.286c0,1.089-.545,2.87-1.835,2.87s-1.835-1.781-1.835-2.87.545-2.87,1.835-2.87,1.835,1.781,1.835,2.87ZM24,15.656a11.7,11.7,0,0,1-.875,4.948c-1.9,3.989-7.105,3.9-10.835,3.9-3.79,0-9.31.141-11.28-3.9A11.542,11.542,0,0,1,0,15.656,9.183,9.183,0,0,1,2.075,9.739,8.464,8.464,0,0,1,1.69,7.2a5.349,5.349,0,0,1,.73-2.7A7.613,7.613,0,0,1,7.86,6.375,18.421,18.421,0,0,1,12.3,5.854a16.59,16.59,0,0,1,4.02.479A7.528,7.528,0,0,1,21.7,4.5a5.3,5.3,0,0,1,.73,2.7,8.345,8.345,0,0,1-.385,2.51A9.214,9.214,0,0,1,24,15.656Zm-3.215,2.63c0-2.286-1.335-4.3-3.675-4.3a19.767,19.767,0,0,0-2.8.312,14.115,14.115,0,0,1-2.255.167A14.2,14.2,0,0,1,9.8,14.3,19.446,19.446,0,0,0,7,13.984c-2.34,0-3.675,2.016-3.675,4.3,0,4.573,4.02,5.276,7.52,5.276h2.41c3.515,0,7.53-.7,7.53-5.276Zm-4.13-2.87c-1.29,0-1.835,1.781-1.835,2.87s.545,2.87,1.835,2.87,1.835-1.781,1.835-2.87S17.945,15.416,16.655,15.416Z" transform="translate(0 -4.5)" fill="#082032"/></svg>